<?xml version="1.0" encoding="UTF-8" standalone="no"?>
<!-- Created with Inkscape (http://www.inkscape.org/) -->

<svg
   width="1920"
   height="1080"
   viewBox="0 0 508 285.75"
   version="1.1"
   id="svg3130"
   xmlns="http://www.w3.org/2000/svg"
   xmlns:svg="http://www.w3.org/2000/svg">
  <defs
     id="defs3127" />
  <g
     id="layer1"
     transform="translate(244.83943,250.31693)">
    <rect
       style="fill:#0d729e;stroke-width:0.264583;fill-opacity:1"
       id="rect3408"
       width="575.60199"
       height="366.62408"
       x="-279.44952"
       y="-293.15201"
       transform="translate(-8.541667e-7)" />
    <path
       style="fill:#f6f8f0;stroke-width:0.285517"
       d="m -19.879328,-139.1727 c 0,-146.18491 0,-146.18491 146.184908,-146.18491 146.1849,0 146.1849,0 146.1849,146.18491 0,146.1848993 0,146.1848993 -146.1849,146.1848993 -146.184908,0 -146.184908,0 -146.184908,-146.1848993 z"
       id="path3083" />
    <path
       style="fill:#6792ab;stroke-width:0.285517"
       d="m -19.879328,-139.1727 c 0,-146.18491 0,-146.18491 146.184908,-146.18491 146.1849,0 146.1849,0 146.1849,146.18491 0,146.1848993 0,146.1848993 -146.1849,146.1848993 -146.184908,0 -146.184908,0 -146.184908,-146.1848993 z M 131.836,-57.397221 c 0.98308,-0.37724 1.06544,-1.79797 0.31302,-5.39958 -0.39368,-1.88441 -1.04518,-5.01253 -1.44778,-6.95136 -0.40261,-1.93883 -0.66189,-3.80455 -0.57617,-4.14603 0.0857,-0.34148 1.38851,-1.63511 2.8951,-2.87471 3.11913,-2.56638 5.2049,-4.77031 5.45405,-5.76305 0.27222,-1.08457 -0.1038,-2.008 -0.95846,-2.35381 -1.00865,-0.40811 -3.96089,-0.80648 -7.84578,-1.0587 -2.27796,-0.1479 -3.16213,-0.31653 -3.46048,-0.65999 -0.2204,-0.25373 -1.0097,-2.19585 -1.75398,-4.31581 -1.71596,-4.8876 -2.59623,-6.75933 -3.43841,-7.31114 -1.31601,-0.86229 -2.03443,0.20674 -4.52958,6.7401 -0.56974,1.49183 -1.32769,3.22635 -1.68434,3.85449 -0.58461,1.02963 -0.78819,1.16069 -2.06787,1.33119 -0.78067,0.10402 -2.44727,0.20435 -3.70354,0.22296 -3.18727,0.0472 -6.39538,0.5027 -7.18516,1.02019 -1.60275,1.05017 -0.635,2.76896 4.52164,8.03062 2.85108,2.90916 3.10177,3.25135 2.92841,3.99725 -0.10428,0.44865 -0.75676,3.12842 -1.44996,5.95504 -0.6932,2.82662 -1.31202,5.37795 -1.37514,5.66962 -0.2278,1.05252 0.34087,1.8966 1.2778,1.8966 1.51578,0 5.51307,-2.32644 9.54197,-5.55347 1.088,-0.87147 2.02347,-1.58448 2.07882,-1.58448 0.0554,0 1.72963,1.55115 3.72063,3.447 5.57349,5.30711 7.21227,6.39531 8.74521,5.80707 z m 17.72738,-82.212659 c 2.66867,-0.6951 4.95714,-2.08105 7.29256,-4.41655 3.84023,-3.84036 5.49711,-7.59804 5.53932,-12.56283 0.0416,-4.8864 -1.45044,-8.81501 -4.50554,-11.86372 -4.69055,-4.68074 -12.92752,-6.21193 -20.44897,-3.8013 -1.02071,0.32714 -4.03829,1.56621 -6.70569,2.75347 -6.86208,3.05431 -7.23046,3.05585 -11.99569,0.0501 -6.69727,-4.22439 -11.39875,-5.59077 -16.29545,-4.73593 -9.105872,1.58968 -14.211012,10.9185 -11.840632,21.63689 0.71878,3.25019 1.97789,5.67094 4.09807,7.87888 3.25003,3.38458 6.606902,4.37088 11.051232,3.247 4.29553,-1.08625 7.75704,-3.04494 12.37868,-7.00445 3.43987,-2.94705 3.86948,-2.91158 8.76256,0.72344 9.0456,6.71992 17.01845,9.56691 22.66955,8.09498 z"
       id="path3081" />
    <path
       style="fill:#8c8d8a;stroke-width:0.285517"
       d="m -19.879328,-139.1727 c 0,-146.18491 0,-146.18491 146.184908,-146.18491 146.1849,0 146.1849,0 146.1849,146.18491 0,146.1848993 0,146.1848993 -146.1849,146.1848993 -146.184908,0 -146.184908,0 -146.184908,-146.1848993 z M 131.836,-57.397221 c 0.98308,-0.37724 1.06544,-1.79797 0.31302,-5.39958 -0.39368,-1.88441 -1.04518,-5.01253 -1.44778,-6.95136 -0.40261,-1.93883 -0.66189,-3.80455 -0.57617,-4.14603 0.0857,-0.34148 1.38851,-1.63511 2.8951,-2.87471 3.11913,-2.56638 5.2049,-4.77031 5.45405,-5.76305 0.27222,-1.08457 -0.1038,-2.008 -0.95846,-2.35381 -1.00865,-0.40811 -3.96089,-0.80648 -7.84578,-1.0587 -2.27796,-0.1479 -3.16213,-0.31653 -3.46048,-0.65999 -0.2204,-0.25373 -1.0097,-2.19585 -1.75398,-4.31581 -1.71596,-4.8876 -2.59623,-6.75933 -3.43841,-7.31114 -1.31601,-0.86229 -2.03443,0.20674 -4.52958,6.7401 -0.56974,1.49183 -1.32769,3.22635 -1.68434,3.85449 -0.58461,1.02963 -0.78819,1.16069 -2.06787,1.33119 -0.78067,0.10402 -2.44727,0.20435 -3.70354,0.22296 -3.18727,0.0472 -6.39538,0.5027 -7.18516,1.02019 -1.60275,1.05017 -0.635,2.76896 4.52164,8.03062 2.85108,2.90916 3.10177,3.25135 2.92841,3.99725 -0.10428,0.44865 -0.75676,3.12842 -1.44996,5.95504 -0.6932,2.82662 -1.31202,5.37795 -1.37514,5.66962 -0.2278,1.05252 0.34087,1.8966 1.2778,1.8966 1.51578,0 5.51307,-2.32644 9.54197,-5.55347 1.088,-0.87147 2.02347,-1.58448 2.07882,-1.58448 0.0554,0 1.72963,1.55115 3.72063,3.447 5.57349,5.30711 7.21227,6.39531 8.74521,5.80707 z m 18.95733,-82.087659 c 4.59647,-1.5261 9.22794,-6.27772 11.1224,-11.41093 0.78813,-2.13549 1.3765,-5.41932 1.01288,-5.65301 -0.15679,-0.10077 -0.37937,-0.94952 -0.49464,-1.88613 -0.50809,-4.12854 -2.05103,-7.53004 -4.54425,-10.01803 -4.69055,-4.68074 -12.92752,-6.21193 -20.44897,-3.8013 -1.02071,0.32714 -4.03829,1.56621 -6.70569,2.75347 -6.86208,3.05431 -7.23046,3.05585 -11.99569,0.0501 -4.90365,-3.09304 -7.81334,-4.29117 -11.71342,-4.82323 -6.07813,-0.82921 -12.060252,2.15439 -14.809532,7.38629 -2.07637,3.95135 -2.704,9.38725 -1.64138,14.21633 0.28412,1.29118 0.40237,2.38567 0.26279,2.4322 -0.13958,0.0465 0.2352,1.04071 0.83284,2.20928 1.99896,3.90862 5.46511,6.70012 9.261642,7.45896 1.32022,0.26388 2.03584,0.2349 3.99724,-0.16187 4.52591,-0.91556 8.2702,-2.92203 13.09602,-7.01786 1.3348,-1.1329 2.70624,-2.18791 3.04765,-2.3445 0.82806,-0.37979 2.39646,0.39389 5.37511,2.65151 6.09476,4.61944 11.77011,7.43493 16.96222,8.41482 2.60345,0.49136 4.96933,0.34519 7.38278,-0.45612 z"
       id="path3079" />
    <path
       style="fill:#0d729e;stroke-width:0.285517"
       d="m -19.879328,-139.1727 c 0,-146.18491 0,-146.18491 146.184908,-146.18491 146.1849,0 146.1849,0 146.1849,146.18491 0,146.1848993 0,146.1848993 -146.1849,146.1848993 -146.184908,0 -146.184908,0 -146.184908,-146.1848993 z M 113.85235,-16.545131 c 3.32385,-0.49896 7.24269,-1.46985 8.05887,-1.99658 0.56094,-0.36201 0.61685,-0.73715 0.81611,-5.47633 0.11766,-2.79824 0.23212,-5.40892 0.25435,-5.80151 0.0457,-0.80733 1.53317,-0.63892 -12.52232,-1.4179 -3.29772,-0.18277 -6.24263,-0.35608 -6.54423,-0.38513 -0.39664,-0.0382 -0.83114,0.43833 -1.57034,1.72229 -1.66689,2.89531 -3.458122,4.69757 -7.167492,7.21166 -1.90147,1.28875 -3.52679,2.5245 -3.61182,2.7461 -0.52662,1.37233 0.62162,2.24168 4.10843,3.11058 4.13959,1.03157 12.353852,1.16118 18.178442,0.28682 z m 37.86428,0.004 c 5.52422,-0.53014 11.49835,-1.52255 11.76571,-1.9545 0.11125,-0.17973 0.14735,-0.58481 0.0803,-0.90018 -0.0671,-0.31538 -0.44341,-2.24369 -0.83622,-4.28514 -1.11583,-5.79886 -1.61337,-7.80102 -1.97093,-7.93124 -0.1818,-0.0662 -1.3584,-0.008 -2.61467,0.13037 -1.25628,0.13792 -5.68894,0.40775 -9.85035,0.59962 -7.56621,0.34883 -7.56621,0.34883 -7.71254,3.34677 -0.17383,3.56136 -0.29813,3.79699 -3.30554,6.26531 -4.08302,3.35114 -3.69625,4.05395 2.73808,4.97539 1.82791,0.26178 7.69848,0.13821 11.70621,-0.2464 z m -19.87619,-40.43938 c 0.38935,-0.17741 0.86595,-0.70405 1.05908,-1.17031 0.41616,-1.00472 0.26405,-2.08542 -1.41277,-10.03711 -0.6253,-2.96525 -1.07738,-5.54651 -1.00461,-5.73613 0.0728,-0.18964 1.35417,-1.35012 2.84755,-2.57885 4.85195,-3.99212 6.40109,-6.21342 5.39942,-7.74218 -0.78492,-1.19792 -2.19311,-1.57005 -7.23654,-1.9123 -4.20191,-0.28515 -4.72289,-0.37767 -5.06473,-0.89937 -0.20956,-0.31984 -0.9112,-2.12294 -1.55919,-4.00689 -2.18396,-6.34959 -3.34636,-8.14547 -5.00306,-7.72966 -0.81668,0.20498 -2.06238,2.59749 -3.95067,7.58775 -1.54271,4.07693 -1.905,4.56703 -3.38136,4.57416 -3.7138,0.0179 -9.71519,0.58917 -10.51046,1.00041 -2.355922,1.21829 -1.61932,3.01134 3.33982,8.12989 1.93936,2.00168 3.5261,3.82279 3.5261,4.0469 0,0.22411 -0.57625,2.71376 -1.28056,5.53255 -1.71174,6.85073 -1.80527,7.60684 -1.03606,8.37605 0.33194,0.33192 0.82836,0.6034 1.10317,0.60328 1.31643,-10e-4 6.23926,-2.88736 9.70903,-5.69341 0.98225,-0.79437 1.88349,-1.44429 2.00274,-1.44429 0.11925,0 1.37568,1.12422 2.79206,2.49827 4.63083,4.49243 7.64964,6.91974 8.60965,6.92273 0.1889,0.001 0.66203,-0.14408 1.05139,-0.32149 z m 18.95289,-82.504349 c 4.45709,-1.47982 9.03412,-6.07993 11.0145,-11.07001 0.98725,-2.48763 1.33039,-4.95072 1.04198,-7.47944 -0.92385,-8.1002 -5.22161,-13.19891 -12.70907,-15.07757 -6.4257,-1.61225 -10.54263,-0.91011 -19.98345,3.4082 -2.45056,1.1209 -4.94318,2.1034 -5.53918,2.18334 -1.30887,0.17555 -2.92829,-0.48754 -6.00756,-2.45987 -4.89974,-3.13838 -8.6248,-4.54293 -12.71946,-4.79594 -7.325792,-0.45267 -13.452932,4.02075 -15.450192,11.28015 -0.82312,2.99178 -0.92606,7.70174 -0.24325,11.13018 1.19572,6.00383 5.51716,10.75212 10.734662,11.79499 1.32022,0.26387 2.03584,0.23489 3.99724,-0.16188 4.52591,-0.91556 8.2702,-2.92203 13.09602,-7.01786 1.3348,-1.1329 2.70624,-2.18791 3.04765,-2.3445 0.82806,-0.37979 2.39646,0.39389 5.37511,2.65151 6.09476,4.61944 11.77011,7.43493 16.96222,8.41482 2.60345,0.49136 4.96933,0.34519 7.38278,-0.45612 z"
       id="path3077" />
  </g>
</svg>
